<svg version="1.0" xmlns="http://www.w3.org/2000/svg"
 width="1024.000000pt" height="1024.000000pt" viewBox="0 0 1024.000000 1024.000000"
 preserveAspectRatio="xMidYMid meet">

<g transform="translate(0.000000,1024.000000) scale(0.100000,-0.100000)"
fill="#000000" stroke="none">
<path d="M3853 7255 c-126 -34 -235 -120 -291 -231 -19 -36 -57 -85 -99 -125
-128 -124 -204 -174 -376 -249 -101 -44 -137 -75 -137 -117 0 -29 21 -38 59
-25 20 7 53 7 106 -1 99 -13 173 -2 374 59 85 25 163 44 175 41 154 -37 265
-70 286 -85 39 -30 54 -70 53 -147 0 -62 -22 -147 -57 -226 -6 -13 14 -21 120
-49 70 -18 170 -41 223 -52 52 -10 98 -21 103 -24 16 -10 8 -42 -12 -47 -20
-5 -356 26 -412 38 -14 4 -32 13 -39 21 -6 8 -17 14 -24 14 -16 0 -134 -198
-210 -355 -168 -346 -196 -598 -95 -867 43 -115 113 -203 349 -442 124 -126
289 -292 366 -371 149 -151 240 -223 394 -315 l96 -57 8 -59 c13 -96 2 -182
-37 -283 -19 -50 -40 -109 -46 -132 -10 -37 -17 -43 -74 -69 -35 -16 -85 -34
-110 -41 -26 -6 -44 -15 -39 -19 4 -4 71 -13 148 -19 77 -6 164 -14 193 -17
50 -5 52 -4 52 19 0 36 8 38 47 11 20 -13 40 -24 44 -24 16 0 9 40 -15 88 -41
82 -59 157 -51 221 8 62 61 237 74 246 5 2 55 -10 112 -29 113 -37 264 -66
340 -66 l48 0 17 -57 c22 -76 15 -154 -27 -282 -32 -97 -37 -105 -69 -120
l-35 -15 60 -7 c33 -4 93 -7 134 -8 l74 -1 -7 123 c-5 89 -3 145 8 207 23 128
37 163 72 172 246 64 274 68 403 62 185 -9 318 26 444 115 23 17 83 47 132 66
50 20 97 42 105 50 10 9 60 14 160 18 155 4 239 23 310 69 l35 23 -37 3 c-49
4 -48 14 2 37 22 10 46 25 54 34 13 15 7 16 -70 17 -46 0 -87 3 -89 6 -3 3 4
25 15 49 42 94 22 148 -83 214 -39 26 -94 68 -122 95 -147 140 -340 287 -644
490 -118 79 -296 204 -395 278 -242 181 -367 263 -511 332 -231 112 -353 140
-619 140 -205 0 -236 8 -293 73 -81 93 -83 240 -8 627 43 227 49 293 35 420
-32 295 -179 496 -407 555 -71 19 -221 18 -290 0z m51 -181 c19 -19 20 -25 3
-48 -19 -26 -61 -18 -65 12 -7 44 32 67 62 36z m-469 -301 c-26 -18 -32 -7 -9
18 12 14 20 17 23 8 2 -7 -4 -18 -14 -26z m2378 -2127 c138 -68 259 -182 318
-299 46 -91 43 -104 -6 -32 -122 180 -303 321 -476 370 l-54 15 63 -4 c48 -3
83 -14 155 -50z m772 -331 c-62 -28 -175 -48 -237 -41 -107 13 -100 21 20 22
74 1 135 7 167 17 62 19 90 20 50 2z m275 -17 c67 -20 124 -47 103 -48 -6 0
-24 -5 -40 -12 l-28 -12 40 -5 c29 -5 43 -13 54 -33 14 -25 14 -29 -5 -55 -28
-38 -66 -51 -98 -34 -14 8 -39 41 -57 75 -18 33 -45 80 -61 103 -15 23 -28 44
-28 47 0 8 37 0 120 -26z m232 -99 c41 -29 51 -62 34 -104 -15 -36 -42 -55
-75 -55 -25 0 -25 -2 -5 46 10 25 14 55 12 86 -3 26 -3 48 -1 48 3 0 18 -10
35 -21z"/>
</g>
</svg>
